<svg width="143" height="44" viewBox="0 0 143 44" fill="none" xmlns="http://www.w3.org/2000/svg">
<path d="M0.730255 42.3675V2.6326H23.9482V9.78491H8.65834V18.6968H23.6651V25.622H8.65834V35.2152H24.0615V42.3675H0.730255ZM31.2388 10.8634C31.2388 4.90318 35.0896 0.929672 41.0357 0.929672H44.2069V7.45757H42.2249C39.9597 7.45757 38.8837 8.64963 38.8837 10.977V12.8502H44.8864V19.378H38.8837V42.3675H31.2388V19.378H27.1049V12.8502H31.2388V10.8634ZM50.1521 10.8634C50.1521 4.90318 54.0029 0.929672 59.949 0.929672H63.1202V7.45757H61.1382C58.873 7.45757 57.7971 8.64963 57.7971 10.977V12.8502H63.7998V19.378H57.7971V42.3675H50.1521V19.378H46.0182V12.8502H50.1521V10.8634ZM79.023 43.1055C69.9057 43.1055 63.7898 36.1802 63.7898 27.6656C63.7898 19.1509 70.1889 12.1123 79.023 12.1123C87.8572 12.1123 93.9731 19.1509 93.9731 27.6656C93.9731 28.517 93.9165 29.4252 93.7466 30.3902H71.7179C72.5673 33.8529 75.1722 36.2937 79.023 36.2937C82.3075 36.2937 84.8558 34.5908 86.2149 32.3202L92.161 36.8046C89.7826 40.4943 84.8558 43.1055 79.023 43.1055ZM71.7179 24.657H86.2716C85.4221 21.3647 82.6473 18.6968 78.9098 18.6968C75.2855 18.6968 72.5673 21.1377 71.7179 24.657ZM110.986 43.1055C102.549 43.1055 95.8098 36.1802 95.8098 27.6088C95.8098 19.0374 102.379 12.169 111.383 12.1123C116.763 12.0555 121.123 14.1558 123.615 17.6183L117.725 22.4432C116.366 20.3997 114.101 19.0941 111.496 19.0941C106.626 19.0941 103.455 23.0109 103.455 27.6088C103.455 32.2067 106.796 36.1234 111.666 36.1234C114.611 36.1234 116.536 34.6476 118.065 32.6041L123.615 37.429C120.84 41.0052 116.763 43.1055 110.986 43.1055ZM137.795 42.3675C131.963 42.3675 128.791 39.6428 128.791 33.2285V19.378H124.658V12.8502H128.791V6.88993L136.436 6.0952V12.8502H142.666V19.378H136.436V32.8311C136.436 34.7043 137.342 35.5558 138.815 35.5558H141.986V42.3675H137.795Z" fill="white"/>
</svg>
