<svg width="268" height="47" viewBox="0 0 268 47" fill="none" xmlns="http://www.w3.org/2000/svg">
<g clip-path="url(#clip0_5_12)">
<path d="M86.9234 18.4704C86.9234 13.7624 83.5429 10.4198 78.0898 10.4198C73.6717 10.4198 70.5095 12.473 70.5095 15.8601C70.5095 25.2445 94.0695 17.6386 94.0695 34.1843C94.0695 42.125 87.2521 46.6238 78.5263 46.6238C71.2134 46.6238 65.1255 43.3412 62.8394 37.2785L69.0378 30.9647C69.0378 36.5722 72.6338 40.1189 78.5263 40.1189C83.15 40.1189 86.5972 37.9533 86.5972 34.4564C86.5972 24.9593 63.0373 32.5678 63.0373 16.3518C63.0373 8.85573 69.8005 3.91504 78.0898 3.91504C85.5389 3.91504 90.7327 7.54536 92.7619 12.5148L86.9234 18.4704Z" fill="white"/>
<path d="M105.109 5.92134V16.9065H113.072V23.0294H105.109V35.9134C105.109 39.188 106.255 40.0223 108.983 40.0223C110.247 39.9808 111.506 39.832 112.746 39.5777V45.8549C111.765 46.242 108.929 46.5218 108.002 46.5218C101.511 46.5218 98.0199 43.7442 98.0199 36.915V23.0294H92.8826V16.9169H98.0199V13.1454L105.109 5.92134Z" fill="white"/>
<path d="M259.677 5.92134V16.9065H267.639V23.0294H259.677V35.9134C259.677 39.188 260.824 40.0223 263.55 40.0223C264.815 39.9808 266.074 39.832 267.314 39.5777V45.8549C266.332 46.242 263.496 46.5218 262.571 46.5218C256.079 46.5218 252.587 43.7442 252.587 36.915V23.0294H247.451V16.9169H252.587V13.1454L259.677 5.92134Z" fill="white"/>
<path d="M174.864 24.0753L168.591 27.7946C167.939 24.5172 164.995 22.4642 161.504 22.4642C156.88 22.4642 153.595 25.6839 153.595 31.2365C153.595 36.7893 156.814 40.03 161.504 40.03C164.884 40.03 167.774 37.7518 168.591 34.8644L174.699 38.4737C172.791 43.0821 167.828 46.6367 161.504 46.6367C152.396 46.6367 146.233 40.3595 146.233 31.2548C146.233 22.2053 152.614 15.8731 161.504 15.8731C167.774 15.86 173.009 19.4145 174.864 24.0753Z" fill="white"/>
<path d="M183.746 4.98238V27.5281L194.381 16.9222H203.869L191.652 28.9718L204.141 45.7843H195.472L186.69 33.8444L183.746 36.7215V45.7843H176.656V4.98238H183.746Z" fill="white"/>
<path d="M212.624 4.98227V19.9692C214.805 17.4713 217.913 15.8602 222.06 15.8602C230.457 15.8602 236.347 22.5244 236.347 31.3543C236.347 40.0719 230.457 46.6238 222.006 46.6238C217.859 46.6238 214.751 45.0127 212.57 42.5147V45.7841H205.535V4.98227H212.624ZM220.641 40.0771C225.44 40.0771 228.984 36.5776 228.984 31.3597C228.984 26.0292 225.44 22.4199 220.641 22.4199C216.116 22.4199 212.406 25.9168 212.406 31.3597C212.406 36.6848 216.128 40.0719 220.641 40.0719V40.0771Z" fill="white"/>
<path d="M238.252 4.98227H245.615V12.2011H238.252V4.98227ZM245.446 16.9221V45.7841H238.356V16.9168L245.446 16.9221Z" fill="white"/>
<path d="M8.37646 0.363312C7.27537 0.36331 6.18509 0.584356 5.16796 1.0138C4.15086 1.44325 3.22685 2.07268 2.44886 2.86607C1.67087 3.65946 1.05414 4.60126 0.63394 5.63757C0.213741 6.67388 -0.00167843 7.7844 9.84703e-06 8.90557V21.698C-0.000129587 22.751 0.286745 23.7832 0.828693 24.6802C1.37064 25.5769 2.14639 26.3028 3.06958 26.7773L13.9736 32.3509V14.5786H31.415L45.3475 0.363312H8.37646Z" fill="#EFEFEF"/>
<path d="M36.9992 46.5688C39.2203 46.5682 41.3503 45.6692 42.9207 44.0699C44.4911 42.4703 45.3732 40.3013 45.3732 38.0397V25.2447C45.3722 24.1906 45.0834 23.1576 44.5391 22.261C43.9948 21.3647 43.2162 20.6399 42.2908 20.1679L31.415 14.5786V32.3509H13.9736L0.0282898 46.5688H36.9992Z" fill="#EFEFEF"/>
<path d="M144.278 45.7847H142.973H137.442L137.55 42.1648C135.364 44.8378 132.138 46.6112 127.817 46.6112C119.341 46.6112 113.433 40.041 113.433 31.3C113.433 22.4465 119.284 15.7639 127.761 15.7639C131.871 15.7639 134.979 17.3777 137.165 19.8284V16.831H144.275L144.278 45.7847ZM129.122 40.0437C133.661 40.0437 137.435 36.6436 137.435 31.3027C137.435 25.8441 133.661 22.3366 129.122 22.3366C124.365 22.3366 120.81 25.9565 120.81 31.3027C120.831 36.5441 124.373 40.0514 129.13 40.0514L129.122 40.0437Z" fill="white"/>
</g>
<defs>
<clipPath id="clip0_5_12">
<rect width="268" height="46.2734" fill="white" transform="translate(0 0.363312)"/>
</clipPath>
</defs>
</svg>
